<svg width="156" height="69" viewBox="0 0 156 69" fill="none" xmlns="http://www.w3.org/2000/svg">
<path d="M8.25684 27.3125V38H2.76465V15.5488H8.25684V25.3828H17.293V15.5488H22.7666V38H17.293V27.3125H8.25684ZM27.8877 21.9873L33.0088 20.5771V38H27.8877V21.9873ZM27.665 15.6602C27.665 15.3138 27.7331 14.9922 27.8691 14.6953C28.0176 14.3861 28.2155 14.1201 28.4629 13.8975C28.7103 13.6624 29.001 13.4831 29.335 13.3594C29.6689 13.2233 30.0277 13.1553 30.4111 13.1553C30.7946 13.1553 31.1533 13.2233 31.4873 13.3594C31.8337 13.4831 32.1305 13.6624 32.3779 13.8975C32.6253 14.1201 32.8232 14.3861 32.9717 14.6953C33.1201 14.9922 33.1943 15.3138 33.1943 15.6602C33.1943 16.0065 33.1201 16.3343 32.9717 16.6436C32.8232 16.9404 32.6253 17.2064 32.3779 17.4414C32.1305 17.6641 31.8337 17.8434 31.4873 17.9795C31.1533 18.1032 30.7946 18.165 30.4111 18.165C30.0277 18.165 29.6689 18.1032 29.335 17.9795C29.001 17.8434 28.7103 17.6641 28.4629 17.4414C28.2155 17.2064 28.0176 16.9404 27.8691 16.6436C27.7331 16.3343 27.665 16.0065 27.665 15.6602ZM42.416 38H37.2949V21.0781H42.416V22.3398C42.9974 21.7585 43.6221 21.2884 44.29 20.9297C44.9704 20.571 45.7002 20.3916 46.4795 20.3916C46.9372 20.3916 47.3639 20.4535 47.7598 20.5771C48.168 20.7008 48.5205 20.8678 48.8174 21.0781C49.1266 21.2884 49.3678 21.5358 49.541 21.8203C49.7142 22.0924 49.8008 22.3831 49.8008 22.6924C49.8008 22.9893 49.7389 23.2676 49.6152 23.5273C49.5039 23.7747 49.3431 23.985 49.1328 24.1582C48.9349 24.3314 48.6999 24.4674 48.4277 24.5664C48.168 24.6654 47.8835 24.7148 47.5742 24.7148C47.166 24.7148 46.832 24.653 46.5723 24.5293C46.3125 24.3932 46.0713 24.251 45.8486 24.1025C45.6383 23.9541 45.4219 23.818 45.1992 23.6943C44.9889 23.5583 44.7168 23.4902 44.3828 23.4902C44.2096 23.4902 44.0365 23.5583 43.8633 23.6943C43.6901 23.818 43.5169 23.9912 43.3438 24.2139C43.1829 24.4242 43.0221 24.6715 42.8613 24.9561C42.7005 25.2406 42.5521 25.5312 42.416 25.8281V38ZM59.6904 38.3711C58.4782 38.3711 57.3464 38.1484 56.2949 37.7031C55.2435 37.2578 54.3219 36.6579 53.5303 35.9033C52.7386 35.1488 52.1139 34.2705 51.6562 33.2686C51.2109 32.2542 50.9883 31.1904 50.9883 30.0771C50.9883 28.7412 51.1986 27.5042 51.6191 26.3662C52.0397 25.2282 52.6335 24.2448 53.4004 23.416C54.1673 22.5749 55.0889 21.9193 56.165 21.4492C57.2536 20.9668 58.4596 20.7256 59.7832 20.7256C60.9707 20.7256 62.0531 20.9173 63.0303 21.3008C64.0075 21.6719 64.8424 22.1852 65.5352 22.8408C66.2402 23.484 66.7845 24.251 67.168 25.1416C67.5638 26.0199 67.7617 26.96 67.7617 27.9619H56.0352C56.0723 28.902 56.2021 29.7988 56.4248 30.6523C56.6598 31.5059 56.9753 32.2604 57.3711 32.916C57.7793 33.5592 58.2493 34.0726 58.7812 34.4561C59.3255 34.8395 59.9255 35.0312 60.5811 35.0312C61.1501 35.0312 61.7067 34.9323 62.251 34.7344C62.7952 34.5365 63.2962 34.2705 63.7539 33.9365C64.224 33.6025 64.626 33.2129 64.96 32.7676C65.3063 32.3099 65.5537 31.8275 65.7021 31.3203L68.3369 31.71C68.0771 32.6253 67.6566 33.4912 67.0752 34.3076C66.4938 35.1117 65.8073 35.8167 65.0156 36.4229C64.2363 37.029 63.3828 37.5052 62.4551 37.8516C61.5397 38.1979 60.6182 38.3711 59.6904 38.3711ZM61.8613 26.2178C61.8242 25.723 61.7191 25.2715 61.5459 24.8633C61.3727 24.4427 61.1501 24.084 60.8779 23.7871C60.6058 23.4902 60.2904 23.2614 59.9316 23.1006C59.5853 22.9398 59.208 22.8594 58.7998 22.8594C58.4782 22.8594 58.1628 22.9398 57.8535 23.1006C57.5566 23.2614 57.2783 23.4902 57.0186 23.7871C56.7712 24.0716 56.5609 24.4242 56.3877 24.8447C56.2145 25.2529 56.1032 25.7106 56.0537 26.2178H61.8613ZM79.9707 38.3525C78.6348 38.3525 77.4596 38.1979 76.4453 37.8887C75.431 37.5671 74.5713 37.1279 73.8662 36.5713C73.1611 36.0146 72.5983 35.3529 72.1777 34.5859C71.7695 33.819 71.485 32.9779 71.3242 32.0625H75.1279C75.264 32.6191 75.4619 33.1387 75.7217 33.6211C75.9814 34.1035 76.3031 34.5303 76.6865 34.9014C77.0824 35.2601 77.5462 35.5446 78.0781 35.7549C78.61 35.9528 79.2285 36.0518 79.9336 36.0518C80.4036 36.0518 80.8675 36.0023 81.3252 35.9033C81.7829 35.8044 82.1911 35.6436 82.5498 35.4209C82.9085 35.1982 83.1992 34.9076 83.4219 34.5488C83.6445 34.1777 83.7559 33.7324 83.7559 33.2129C83.7559 32.5449 83.5827 31.9512 83.2363 31.4316C82.89 30.9121 82.4385 30.4421 81.8818 30.0215C81.3252 29.5885 80.6882 29.1865 79.9707 28.8154C79.2533 28.4443 78.5173 28.0732 77.7627 27.7021C77.0081 27.3311 76.2721 26.9476 75.5547 26.5518C74.8372 26.1436 74.2002 25.6859 73.6436 25.1787C73.0869 24.6715 72.6354 24.1025 72.2891 23.4717C71.9427 22.8408 71.7695 22.1172 71.7695 21.3008C71.7695 20.4102 71.9613 19.5876 72.3447 18.833C72.7406 18.0661 73.3096 17.4043 74.0518 16.8477C74.7939 16.2786 75.7031 15.8395 76.7793 15.5303C77.8555 15.2087 79.0739 15.0479 80.4346 15.0479C81.5602 15.0479 82.5807 15.2087 83.4961 15.5303C84.4238 15.8395 85.234 16.2663 85.9268 16.8105C86.6318 17.3548 87.2194 17.998 87.6895 18.7402C88.1719 19.4701 88.543 20.2617 88.8027 21.1152H85.333C85.1351 20.5833 84.9001 20.0762 84.6279 19.5938C84.3682 19.099 84.0404 18.6722 83.6445 18.3135C83.2611 17.9424 82.791 17.6517 82.2344 17.4414C81.6901 17.2188 81.0407 17.1074 80.2861 17.1074C79.5687 17.1074 78.9626 17.2002 78.4678 17.3857C77.973 17.5713 77.571 17.8125 77.2617 18.1094C76.9648 18.3939 76.7484 18.7155 76.6123 19.0742C76.4762 19.4329 76.4082 19.7855 76.4082 20.1318C76.4082 20.738 76.5814 21.2822 76.9277 21.7646C77.2865 22.2471 77.7565 22.6986 78.3379 23.1191C78.9193 23.5397 79.5811 23.9417 80.3232 24.3252C81.0654 24.6963 81.82 25.0798 82.5869 25.4756C83.3662 25.859 84.127 26.2673 84.8691 26.7002C85.6113 27.1208 86.2731 27.5846 86.8545 28.0918C87.4359 28.599 87.8997 29.1618 88.2461 29.7803C88.6048 30.3988 88.7842 31.0977 88.7842 31.877C88.7842 32.7923 88.5924 33.6458 88.209 34.4375C87.8379 35.2168 87.2812 35.8971 86.5391 36.4785C85.7969 37.0599 84.8753 37.5176 83.7744 37.8516C82.6735 38.1855 81.4056 38.3525 79.9707 38.3525ZM96.0205 20.7627L100.474 31.0049L104.871 20.6514H105.91L110.382 30.8564L114.724 20.7627H118.063L110.493 38.3711H108.118L104.444 29.873L100.789 38.3711H98.2656L90.6211 20.7627H96.0205ZM120.438 21.9873L125.56 20.5771V38H120.438V21.9873ZM120.216 15.6602C120.216 15.3138 120.284 14.9922 120.42 14.6953C120.568 14.3861 120.766 14.1201 121.014 13.8975C121.261 13.6624 121.552 13.4831 121.886 13.3594C122.22 13.2233 122.578 13.1553 122.962 13.1553C123.345 13.1553 123.704 13.2233 124.038 13.3594C124.384 13.4831 124.681 13.6624 124.929 13.8975C125.176 14.1201 125.374 14.3861 125.522 14.6953C125.671 14.9922 125.745 15.3138 125.745 15.6602C125.745 16.0065 125.671 16.3343 125.522 16.6436C125.374 16.9404 125.176 17.2064 124.929 17.4414C124.681 17.6641 124.384 17.8434 124.038 17.9795C123.704 18.1032 123.345 18.165 122.962 18.165C122.578 18.165 122.22 18.1032 121.886 17.9795C121.552 17.8434 121.261 17.6641 121.014 17.4414C120.766 17.2064 120.568 16.9404 120.42 16.6436C120.284 16.3343 120.216 16.0065 120.216 15.6602ZM136.859 21.0781H141.09V23.1377H136.859V38H131.738V23.1377H128.417V21.0781H131.738V19.1299C131.738 18.264 131.911 17.4352 132.258 16.6436C132.604 15.8519 133.087 15.1592 133.705 14.5654C134.336 13.9593 135.078 13.4769 135.932 13.1182C136.798 12.7594 137.744 12.5801 138.771 12.5801C139.636 12.5801 140.379 12.6667 140.997 12.8398C141.628 13.0007 142.147 13.2233 142.556 13.5078C142.964 13.7799 143.261 14.0954 143.446 14.4541C143.644 14.8005 143.743 15.1592 143.743 15.5303C143.743 15.8148 143.688 16.0869 143.576 16.3467C143.465 16.5941 143.31 16.8105 143.112 16.9961C142.914 17.1816 142.679 17.3301 142.407 17.4414C142.147 17.5527 141.863 17.6084 141.554 17.6084C141.121 17.6084 140.793 17.528 140.57 17.3672C140.348 17.194 140.181 16.9899 140.069 16.7549C139.958 16.5075 139.878 16.2415 139.828 15.957C139.779 15.6602 139.711 15.3942 139.624 15.1592C139.537 14.9118 139.408 14.7077 139.234 14.5469C139.074 14.3737 138.82 14.2871 138.474 14.2871C137.397 14.2871 136.859 15.2087 136.859 17.0518V21.0781ZM142.5 23.1377V21.4492C143.106 21.4492 143.675 21.3008 144.207 21.0039C144.751 20.6947 145.24 20.2803 145.673 19.7607C146.118 19.2288 146.495 18.6165 146.805 17.9238C147.126 17.2188 147.361 16.4704 147.51 15.6787H150.349V21.0781H154.523V23.1377H150.349V34.0664C150.349 34.4128 150.435 34.7096 150.608 34.957C150.782 35.2044 151.023 35.3281 151.332 35.3281C151.518 35.3281 151.709 35.2725 151.907 35.1611C152.118 35.0374 152.315 34.8952 152.501 34.7344C152.699 34.5736 152.872 34.4128 153.021 34.252C153.169 34.0911 153.274 33.9674 153.336 33.8809L155.117 35.2725C154.833 35.7054 154.517 36.1136 154.171 36.4971C153.837 36.8682 153.447 37.196 153.002 37.4805C152.557 37.7526 152.043 37.9691 151.462 38.1299C150.893 38.2907 150.231 38.3711 149.477 38.3711C148.771 38.3711 148.147 38.266 147.603 38.0557C147.071 37.8577 146.625 37.5794 146.267 37.2207C145.92 36.8496 145.654 36.4105 145.469 35.9033C145.296 35.3962 145.209 34.8333 145.209 34.2148V23.1377H142.5Z" fill="black"/>
<path d="M0 27.832H155.34V28.7598H0V27.832Z" fill="black"/>
</svg>
