<svg width="476" height="77" viewBox="0 0 476 77" fill="none" xmlns="http://www.w3.org/2000/svg">
<mask id="path-1-outside-1_206_32" maskUnits="userSpaceOnUse" x="-1" y="-1" width="404" height="79" fill="black">
<rect fill="white" x="-1" y="-1" width="404" height="79"/>
<path d="M18.6914 44.4922V75H8.00293V11.4062H18.6914V40.4102H50.6494V11.4062H61.3379V75H50.6494V44.4922H18.6914ZM80.1904 0.878906C80.9424 0.878906 81.6585 1.00423 82.3389 1.25488C83.055 1.50553 83.6637 1.86361 84.165 2.3291C84.6663 2.75879 85.0602 3.27799 85.3467 3.88672C85.6689 4.45964 85.8301 5.08626 85.8301 5.7666C85.8301 6.41113 85.6689 7.03776 85.3467 7.64648C85.0602 8.2194 84.6663 8.73861 84.165 9.2041C83.6637 9.63379 83.055 9.99186 82.3389 10.2783C81.6585 10.529 80.9424 10.6543 80.1904 10.6543C79.4385 10.6543 78.7223 10.529 78.042 10.2783C77.3617 9.99186 76.7708 9.63379 76.2695 9.2041C75.7682 8.73861 75.3564 8.2194 75.0342 7.64648C74.7477 7.03776 74.6045 6.41113 74.6045 5.7666C74.6045 5.08626 74.7477 4.45964 75.0342 3.88672C75.3564 3.27799 75.7682 2.75879 76.2695 2.3291C76.7708 1.86361 77.3617 1.50553 78.042 1.25488C78.7223 1.00423 79.4385 0.878906 80.1904 0.878906ZM75.4639 27.7344L82.2852 24.9414H85.1318V75H75.4639V27.7344ZM97.002 25.9619H106.67V35.2539C107.637 33.8574 108.657 32.5505 109.731 31.333C110.841 30.0798 111.987 28.9876 113.169 28.0566C114.351 27.0898 115.568 26.3379 116.821 25.8008C118.11 25.2279 119.399 24.9414 120.688 24.9414C121.763 24.9414 122.747 25.1025 123.643 25.4248C124.574 25.7471 125.379 26.1768 126.06 26.7139C126.74 27.251 127.277 27.8776 127.671 28.5938C128.065 29.3099 128.262 30.0618 128.262 30.8496C128.262 32.4609 127.76 33.6605 126.758 34.4482C125.791 35.236 124.43 35.6299 122.676 35.6299C121.602 35.6299 120.724 35.5225 120.044 35.3076C119.399 35.057 118.809 34.8063 118.271 34.5557C117.734 34.2692 117.197 34.0186 116.66 33.8037C116.123 33.5531 115.425 33.4277 114.565 33.4277C113.276 33.4277 111.969 34.1439 110.645 35.5762C109.355 37.0085 108.031 38.8346 106.67 41.0547V75H97.002V25.9619ZM156.353 76.0742C153.022 76.0742 149.907 75.4655 147.007 74.248C144.106 72.9948 141.564 71.2939 139.38 69.1455C137.196 66.9971 135.477 64.4906 134.224 61.626C132.97 58.7256 132.344 55.6283 132.344 52.334C132.344 48.3952 132.917 44.7607 134.062 41.4307C135.208 38.0648 136.838 35.1644 138.95 32.7295C141.063 30.2946 143.587 28.3968 146.523 27.0361C149.495 25.6396 152.808 24.9414 156.46 24.9414C159.683 24.9414 162.619 25.5143 165.269 26.6602C167.954 27.7702 170.246 29.292 172.144 31.2256C174.077 33.1234 175.581 35.3255 176.655 37.832C177.729 40.3027 178.267 42.8988 178.267 45.6201H141.689C141.689 48.9144 142.101 51.9759 142.925 54.8047C143.784 57.5977 144.984 60.0146 146.523 62.0557C148.063 64.0967 149.889 65.708 152.002 66.8896C154.115 68.0355 156.442 68.6084 158.984 68.6084C161.097 68.6084 163.12 68.2682 165.054 67.5879C167.023 66.9076 168.796 66.0124 170.371 64.9023C171.982 63.7565 173.343 62.4674 174.453 61.0352C175.563 59.6029 176.351 58.1169 176.816 56.5771L179.556 57.8125C178.84 60.319 177.712 62.6823 176.172 64.9023C174.632 67.1224 172.806 69.056 170.693 70.7031C168.617 72.3503 166.343 73.6572 163.872 74.624C161.401 75.5908 158.895 76.0742 156.353 76.0742ZM166.074 41.6992C166.074 39.8372 165.734 38.1185 165.054 36.543C164.409 34.9316 163.514 33.5352 162.368 32.3535C161.222 31.1719 159.88 30.2588 158.34 29.6143C156.8 28.9339 155.153 28.5938 153.398 28.5938C151.93 28.5938 150.516 28.9339 149.155 29.6143C147.83 30.2588 146.649 31.1719 145.61 32.3535C144.572 33.5352 143.695 34.9316 142.979 36.543C142.298 38.1185 141.886 39.8372 141.743 41.6992H166.074ZM208.452 72.4219C210.028 72.4219 211.585 72.207 213.125 71.7773C214.665 71.3477 216.025 70.721 217.207 69.8975C218.424 69.0381 219.391 67.9997 220.107 66.7822C220.859 65.529 221.235 64.0967 221.235 62.4854C221.235 60.5518 220.734 58.833 219.731 57.3291C218.729 55.7894 217.404 54.3929 215.757 53.1396C214.146 51.8506 212.284 50.651 210.171 49.541C208.094 48.431 205.946 47.321 203.726 46.2109C201.541 45.0651 199.393 43.8835 197.28 42.666C195.203 41.4128 193.341 40.0342 191.694 38.5303C190.083 37.0264 188.776 35.3434 187.773 33.4814C186.771 31.6195 186.27 29.471 186.27 27.0361C186.27 24.6012 186.717 22.3454 187.612 20.2686C188.543 18.1917 189.886 16.3835 191.641 14.8438C193.431 13.304 195.615 12.1045 198.193 11.2451C200.771 10.3857 203.726 9.95605 207.056 9.95605C213.071 9.95605 217.816 11.2272 221.289 13.7695C224.798 16.276 227.323 19.9105 228.862 24.6729L223.384 27.1973C222.739 25.2279 221.916 23.4375 220.913 21.8262C219.946 20.2148 218.765 18.8363 217.368 17.6904C216.007 16.5446 214.432 15.6673 212.642 15.0586C210.851 14.4141 208.828 14.0918 206.572 14.0918C204.567 14.0918 202.812 14.3783 201.309 14.9512C199.805 15.4883 198.551 16.2223 197.549 17.1533C196.546 18.0485 195.794 19.069 195.293 20.2148C194.792 21.3607 194.541 22.5244 194.541 23.7061C194.541 25.389 195.042 26.9287 196.045 28.3252C197.083 29.6859 198.444 30.9928 200.127 32.2461C201.846 33.4635 203.779 34.6452 205.928 35.791C208.076 36.9368 210.26 38.1006 212.48 39.2822C214.736 40.4639 216.938 41.6992 219.087 42.9883C221.235 44.2773 223.151 45.6917 224.834 47.2314C226.553 48.7354 227.913 50.4004 228.916 52.2266C229.954 54.0169 230.474 56.0221 230.474 58.2422C230.474 60.7487 229.99 63.112 229.023 65.332C228.057 67.5521 226.624 69.4857 224.727 71.1328C222.829 72.7799 220.448 74.0869 217.583 75.0537C214.718 76.0205 211.406 76.5039 207.646 76.5039C204.603 76.5039 201.864 76.1637 199.429 75.4834C197.03 74.8031 194.917 73.8363 193.091 72.583C191.265 71.2939 189.689 69.7363 188.364 67.9102C187.075 66.0482 186.001 63.9355 185.142 61.5723L190.889 59.209C192.214 63.3984 194.416 66.6569 197.495 68.9844C200.61 71.276 204.263 72.4219 208.452 72.4219ZM245.298 25.9619L260.82 61.7871L276.235 25.9619L291.704 61.7871L305.454 25.9619H310.127L290.146 75.5371H286.816L273.12 43.4717L259.316 75.5371H256.255L234.771 25.9619H245.298ZM321.353 0.878906C322.104 0.878906 322.821 1.00423 323.501 1.25488C324.217 1.50553 324.826 1.86361 325.327 2.3291C325.828 2.75879 326.222 3.27799 326.509 3.88672C326.831 4.45964 326.992 5.08626 326.992 5.7666C326.992 6.41113 326.831 7.03776 326.509 7.64648C326.222 8.2194 325.828 8.73861 325.327 9.2041C324.826 9.63379 324.217 9.99186 323.501 10.2783C322.821 10.529 322.104 10.6543 321.353 10.6543C320.601 10.6543 319.884 10.529 319.204 10.2783C318.524 9.99186 317.933 9.63379 317.432 9.2041C316.93 8.73861 316.519 8.2194 316.196 7.64648C315.91 7.03776 315.767 6.41113 315.767 5.7666C315.767 5.08626 315.91 4.45964 316.196 3.88672C316.519 3.27799 316.93 2.75879 317.432 2.3291C317.933 1.86361 318.524 1.50553 319.204 1.25488C319.884 1.00423 320.601 0.878906 321.353 0.878906ZM316.626 27.7344L323.447 24.9414H326.294V75H316.626V27.7344ZM367.007 25.9619V30.0977H353.901V75H344.126V30.0977H333.813V25.9619H344.126V20.2148C344.126 17.5293 344.591 15.0228 345.522 12.6953C346.489 10.332 347.796 8.27311 349.443 6.51855C351.09 4.764 353.024 3.38542 355.244 2.38281C357.464 1.38021 359.845 0.878906 362.388 0.878906C364.536 0.878906 366.452 1.09375 368.135 1.52344C369.854 1.95312 371.286 2.54395 372.432 3.2959C373.577 4.04785 374.455 4.92513 375.063 5.92773C375.672 6.93034 375.977 8.02246 375.977 9.2041C375.977 10.6722 375.475 11.818 374.473 12.6416C373.47 13.4294 372.306 13.8232 370.981 13.8232C369.764 13.8232 368.851 13.5905 368.242 13.125C367.633 12.6595 367.15 12.0866 366.792 11.4062C366.47 10.7259 366.201 9.97396 365.986 9.15039C365.807 8.32682 365.521 7.57487 365.127 6.89453C364.769 6.21419 364.25 5.64128 363.569 5.17578C362.889 4.71029 361.904 4.47754 360.615 4.47754C359.648 4.47754 358.753 4.764 357.93 5.33691C357.106 5.87402 356.39 6.60807 355.781 7.53906C355.208 8.43424 354.743 9.47266 354.385 10.6543C354.062 11.8359 353.901 13.0534 353.901 14.3066V25.9619H367.007ZM401.113 68.7695C399.824 71.0254 398.088 72.8158 395.903 74.1406C393.755 75.4297 391.105 76.0742 387.954 76.0742C386.307 76.0742 384.875 75.7878 383.657 75.2148C382.44 74.6777 381.437 73.9079 380.649 72.9053C379.862 71.9027 379.271 70.7031 378.877 69.3066C378.519 67.9102 378.34 66.3525 378.34 64.6338V30.0977H369.854V27.6807C372.575 27.6807 374.813 27.1973 376.567 26.2305C378.358 25.2279 379.808 23.8851 380.918 22.2021C382.064 20.4834 382.959 18.514 383.604 16.2939C384.248 14.0381 384.803 11.6748 385.269 9.2041H388.062V25.9619H399.072V30.0977H388.062V64.6338C388.062 66.1019 388.563 67.3551 389.565 68.3936C390.604 69.3962 391.875 69.8975 393.379 69.8975C394.489 69.8975 395.492 69.6289 396.387 69.0918C397.282 68.5547 398.052 67.8923 398.696 67.1045L401.113 68.7695Z"/>
<path d="M0 45.6201H401.328V48.3057H0V45.6201Z"/>
</mask>
<path d="M18.6914 44.4922V75H8.00293V11.4062H18.6914V40.4102H50.6494V11.4062H61.3379V75H50.6494V44.4922H18.6914ZM80.1904 0.878906C80.9424 0.878906 81.6585 1.00423 82.3389 1.25488C83.055 1.50553 83.6637 1.86361 84.165 2.3291C84.6663 2.75879 85.0602 3.27799 85.3467 3.88672C85.6689 4.45964 85.8301 5.08626 85.8301 5.7666C85.8301 6.41113 85.6689 7.03776 85.3467 7.64648C85.0602 8.2194 84.6663 8.73861 84.165 9.2041C83.6637 9.63379 83.055 9.99186 82.3389 10.2783C81.6585 10.529 80.9424 10.6543 80.1904 10.6543C79.4385 10.6543 78.7223 10.529 78.042 10.2783C77.3617 9.99186 76.7708 9.63379 76.2695 9.2041C75.7682 8.73861 75.3564 8.2194 75.0342 7.64648C74.7477 7.03776 74.6045 6.41113 74.6045 5.7666C74.6045 5.08626 74.7477 4.45964 75.0342 3.88672C75.3564 3.27799 75.7682 2.75879 76.2695 2.3291C76.7708 1.86361 77.3617 1.50553 78.042 1.25488C78.7223 1.00423 79.4385 0.878906 80.1904 0.878906ZM75.4639 27.7344L82.2852 24.9414H85.1318V75H75.4639V27.7344ZM97.002 25.9619H106.67V35.2539C107.637 33.8574 108.657 32.5505 109.731 31.333C110.841 30.0798 111.987 28.9876 113.169 28.0566C114.351 27.0898 115.568 26.3379 116.821 25.8008C118.11 25.2279 119.399 24.9414 120.688 24.9414C121.763 24.9414 122.747 25.1025 123.643 25.4248C124.574 25.7471 125.379 26.1768 126.06 26.7139C126.74 27.251 127.277 27.8776 127.671 28.5938C128.065 29.3099 128.262 30.0618 128.262 30.8496C128.262 32.4609 127.76 33.6605 126.758 34.4482C125.791 35.236 124.43 35.6299 122.676 35.6299C121.602 35.6299 120.724 35.5225 120.044 35.3076C119.399 35.057 118.809 34.8063 118.271 34.5557C117.734 34.2692 117.197 34.0186 116.66 33.8037C116.123 33.5531 115.425 33.4277 114.565 33.4277C113.276 33.4277 111.969 34.1439 110.645 35.5762C109.355 37.0085 108.031 38.8346 106.67 41.0547V75H97.002V25.9619ZM156.353 76.0742C153.022 76.0742 149.907 75.4655 147.007 74.248C144.106 72.9948 141.564 71.2939 139.38 69.1455C137.196 66.9971 135.477 64.4906 134.224 61.626C132.97 58.7256 132.344 55.6283 132.344 52.334C132.344 48.3952 132.917 44.7607 134.062 41.4307C135.208 38.0648 136.838 35.1644 138.95 32.7295C141.063 30.2946 143.587 28.3968 146.523 27.0361C149.495 25.6396 152.808 24.9414 156.46 24.9414C159.683 24.9414 162.619 25.5143 165.269 26.6602C167.954 27.7702 170.246 29.292 172.144 31.2256C174.077 33.1234 175.581 35.3255 176.655 37.832C177.729 40.3027 178.267 42.8988 178.267 45.6201H141.689C141.689 48.9144 142.101 51.9759 142.925 54.8047C143.784 57.5977 144.984 60.0146 146.523 62.0557C148.063 64.0967 149.889 65.708 152.002 66.8896C154.115 68.0355 156.442 68.6084 158.984 68.6084C161.097 68.6084 163.12 68.2682 165.054 67.5879C167.023 66.9076 168.796 66.0124 170.371 64.9023C171.982 63.7565 173.343 62.4674 174.453 61.0352C175.563 59.6029 176.351 58.1169 176.816 56.5771L179.556 57.8125C178.84 60.319 177.712 62.6823 176.172 64.9023C174.632 67.1224 172.806 69.056 170.693 70.7031C168.617 72.3503 166.343 73.6572 163.872 74.624C161.401 75.5908 158.895 76.0742 156.353 76.0742ZM166.074 41.6992C166.074 39.8372 165.734 38.1185 165.054 36.543C164.409 34.9316 163.514 33.5352 162.368 32.3535C161.222 31.1719 159.88 30.2588 158.34 29.6143C156.8 28.9339 155.153 28.5938 153.398 28.5938C151.93 28.5938 150.516 28.9339 149.155 29.6143C147.83 30.2588 146.649 31.1719 145.61 32.3535C144.572 33.5352 143.695 34.9316 142.979 36.543C142.298 38.1185 141.886 39.8372 141.743 41.6992H166.074ZM208.452 72.4219C210.028 72.4219 211.585 72.207 213.125 71.7773C214.665 71.3477 216.025 70.721 217.207 69.8975C218.424 69.0381 219.391 67.9997 220.107 66.7822C220.859 65.529 221.235 64.0967 221.235 62.4854C221.235 60.5518 220.734 58.833 219.731 57.3291C218.729 55.7894 217.404 54.3929 215.757 53.1396C214.146 51.8506 212.284 50.651 210.171 49.541C208.094 48.431 205.946 47.321 203.726 46.2109C201.541 45.0651 199.393 43.8835 197.28 42.666C195.203 41.4128 193.341 40.0342 191.694 38.5303C190.083 37.0264 188.776 35.3434 187.773 33.4814C186.771 31.6195 186.27 29.471 186.27 27.0361C186.27 24.6012 186.717 22.3454 187.612 20.2686C188.543 18.1917 189.886 16.3835 191.641 14.8438C193.431 13.304 195.615 12.1045 198.193 11.2451C200.771 10.3857 203.726 9.95605 207.056 9.95605C213.071 9.95605 217.816 11.2272 221.289 13.7695C224.798 16.276 227.323 19.9105 228.862 24.6729L223.384 27.1973C222.739 25.2279 221.916 23.4375 220.913 21.8262C219.946 20.2148 218.765 18.8363 217.368 17.6904C216.007 16.5446 214.432 15.6673 212.642 15.0586C210.851 14.4141 208.828 14.0918 206.572 14.0918C204.567 14.0918 202.812 14.3783 201.309 14.9512C199.805 15.4883 198.551 16.2223 197.549 17.1533C196.546 18.0485 195.794 19.069 195.293 20.2148C194.792 21.3607 194.541 22.5244 194.541 23.7061C194.541 25.389 195.042 26.9287 196.045 28.3252C197.083 29.6859 198.444 30.9928 200.127 32.2461C201.846 33.4635 203.779 34.6452 205.928 35.791C208.076 36.9368 210.26 38.1006 212.48 39.2822C214.736 40.4639 216.938 41.6992 219.087 42.9883C221.235 44.2773 223.151 45.6917 224.834 47.2314C226.553 48.7354 227.913 50.4004 228.916 52.2266C229.954 54.0169 230.474 56.0221 230.474 58.2422C230.474 60.7487 229.99 63.112 229.023 65.332C228.057 67.5521 226.624 69.4857 224.727 71.1328C222.829 72.7799 220.448 74.0869 217.583 75.0537C214.718 76.0205 211.406 76.5039 207.646 76.5039C204.603 76.5039 201.864 76.1637 199.429 75.4834C197.03 74.8031 194.917 73.8363 193.091 72.583C191.265 71.2939 189.689 69.7363 188.364 67.9102C187.075 66.0482 186.001 63.9355 185.142 61.5723L190.889 59.209C192.214 63.3984 194.416 66.6569 197.495 68.9844C200.61 71.276 204.263 72.4219 208.452 72.4219ZM245.298 25.9619L260.82 61.7871L276.235 25.9619L291.704 61.7871L305.454 25.9619H310.127L290.146 75.5371H286.816L273.12 43.4717L259.316 75.5371H256.255L234.771 25.9619H245.298ZM321.353 0.878906C322.104 0.878906 322.821 1.00423 323.501 1.25488C324.217 1.50553 324.826 1.86361 325.327 2.3291C325.828 2.75879 326.222 3.27799 326.509 3.88672C326.831 4.45964 326.992 5.08626 326.992 5.7666C326.992 6.41113 326.831 7.03776 326.509 7.64648C326.222 8.2194 325.828 8.73861 325.327 9.2041C324.826 9.63379 324.217 9.99186 323.501 10.2783C322.821 10.529 322.104 10.6543 321.353 10.6543C320.601 10.6543 319.884 10.529 319.204 10.2783C318.524 9.99186 317.933 9.63379 317.432 9.2041C316.93 8.73861 316.519 8.2194 316.196 7.64648C315.91 7.03776 315.767 6.41113 315.767 5.7666C315.767 5.08626 315.91 4.45964 316.196 3.88672C316.519 3.27799 316.93 2.75879 317.432 2.3291C317.933 1.86361 318.524 1.50553 319.204 1.25488C319.884 1.00423 320.601 0.878906 321.353 0.878906ZM316.626 27.7344L323.447 24.9414H326.294V75H316.626V27.7344ZM367.007 25.9619V30.0977H353.901V75H344.126V30.0977H333.813V25.9619H344.126V20.2148C344.126 17.5293 344.591 15.0228 345.522 12.6953C346.489 10.332 347.796 8.27311 349.443 6.51855C351.09 4.764 353.024 3.38542 355.244 2.38281C357.464 1.38021 359.845 0.878906 362.388 0.878906C364.536 0.878906 366.452 1.09375 368.135 1.52344C369.854 1.95312 371.286 2.54395 372.432 3.2959C373.577 4.04785 374.455 4.92513 375.063 5.92773C375.672 6.93034 375.977 8.02246 375.977 9.2041C375.977 10.6722 375.475 11.818 374.473 12.6416C373.47 13.4294 372.306 13.8232 370.981 13.8232C369.764 13.8232 368.851 13.5905 368.242 13.125C367.633 12.6595 367.15 12.0866 366.792 11.4062C366.47 10.7259 366.201 9.97396 365.986 9.15039C365.807 8.32682 365.521 7.57487 365.127 6.89453C364.769 6.21419 364.25 5.64128 363.569 5.17578C362.889 4.71029 361.904 4.47754 360.615 4.47754C359.648 4.47754 358.753 4.764 357.93 5.33691C357.106 5.87402 356.39 6.60807 355.781 7.53906C355.208 8.43424 354.743 9.47266 354.385 10.6543C354.062 11.8359 353.901 13.0534 353.901 14.3066V25.9619H367.007ZM401.113 68.7695C399.824 71.0254 398.088 72.8158 395.903 74.1406C393.755 75.4297 391.105 76.0742 387.954 76.0742C386.307 76.0742 384.875 75.7878 383.657 75.2148C382.44 74.6777 381.437 73.9079 380.649 72.9053C379.862 71.9027 379.271 70.7031 378.877 69.3066C378.519 67.9102 378.34 66.3525 378.34 64.6338V30.0977H369.854V27.6807C372.575 27.6807 374.813 27.1973 376.567 26.2305C378.358 25.2279 379.808 23.8851 380.918 22.2021C382.064 20.4834 382.959 18.514 383.604 16.2939C384.248 14.0381 384.803 11.6748 385.269 9.2041H388.062V25.9619H399.072V30.0977H388.062V64.6338C388.062 66.1019 388.563 67.3551 389.565 68.3936C390.604 69.3962 391.875 69.8975 393.379 69.8975C394.489 69.8975 395.492 69.6289 396.387 69.0918C397.282 68.5547 398.052 67.8923 398.696 67.1045L401.113 68.7695Z" fill="black"/>
<path d="M0 45.6201H401.328V48.3057H0V45.6201Z" fill="black"/>
<path d="M18.6914 44.4922V43.4922H17.6914V44.4922H18.6914ZM18.6914 75V76H19.6914V75H18.6914ZM8.00293 75H7.00293V76H8.00293V75ZM8.00293 11.4062V10.4062H7.00293V11.4062H8.00293ZM18.6914 11.4062H19.6914V10.4062H18.6914V11.4062ZM18.6914 40.4102H17.6914V41.4102H18.6914V40.4102ZM50.6494 40.4102V41.4102H51.6494V40.4102H50.6494ZM50.6494 11.4062V10.4062H49.6494V11.4062H50.6494ZM61.3379 11.4062H62.3379V10.4062H61.3379V11.4062ZM61.3379 75V76H62.3379V75H61.3379ZM50.6494 75H49.6494V76H50.6494V75ZM50.6494 44.4922H51.6494V43.4922H50.6494V44.4922ZM17.6914 44.4922V75H19.6914V44.4922H17.6914ZM18.6914 74H8.00293V76H18.6914V74ZM9.00293 75V11.4062H7.00293V75H9.00293ZM8.00293 12.4062H18.6914V10.4062H8.00293V12.4062ZM17.6914 11.4062V40.4102H19.6914V11.4062H17.6914ZM18.6914 41.4102H50.6494V39.4102H18.6914V41.4102ZM51.6494 40.4102V11.4062H49.6494V40.4102H51.6494ZM50.6494 12.4062H61.3379V10.4062H50.6494V12.4062ZM60.3379 11.4062V75H62.3379V11.4062H60.3379ZM61.3379 74H50.6494V76H61.3379V74ZM51.6494 75V44.4922H49.6494V75H51.6494ZM50.6494 43.4922H18.6914V45.4922H50.6494V43.4922ZM82.3389 1.25488L81.9932 2.19323L82.0008 2.19605L82.0085 2.19874L82.3389 1.25488ZM84.165 2.3291L83.4846 3.0619L83.4992 3.07542L83.5142 3.08836L84.165 2.3291ZM85.3467 3.88672L84.4419 4.31252L84.4573 4.34535L84.4751 4.37698L85.3467 3.88672ZM85.3467 7.64648L84.4629 7.1786L84.4575 7.18887L84.4523 7.19927L85.3467 7.64648ZM84.165 9.2041L84.8158 9.96336L84.8309 9.95042L84.8455 9.9369L84.165 9.2041ZM82.3389 10.2783L82.6846 11.2167L82.6975 11.2119L82.7103 11.2068L82.3389 10.2783ZM78.042 10.2783L77.6539 11.2L77.6749 11.2088L77.6963 11.2167L78.042 10.2783ZM76.2695 9.2041L75.5891 9.9369L75.6036 9.95042L75.6187 9.96336L76.2695 9.2041ZM75.0342 7.64648L74.1294 8.07228L74.1448 8.10512L74.1626 8.13675L75.0342 7.64648ZM75.0342 3.88672L74.1504 3.41883L74.145 3.42911L74.1398 3.43951L75.0342 3.88672ZM76.2695 2.3291L76.9203 3.08836L76.9354 3.07542L76.95 3.0619L76.2695 2.3291ZM75.4639 27.7344L75.085 26.8089L74.4639 27.0632V27.7344H75.4639ZM82.2852 24.9414V23.9414H82.0884L81.9062 24.016L82.2852 24.9414ZM85.1318 24.9414H86.1318V23.9414H85.1318V24.9414ZM85.1318 75V76H86.1318V75H85.1318ZM75.4639 75H74.4639V76H75.4639V75ZM80.1904 1.87891C80.8289 1.87891 81.4276 1.98487 81.9932 2.19323L82.6846 0.31654C81.8894 0.0235982 81.0559 -0.121094 80.1904 -0.121094V1.87891ZM82.0085 2.19874C82.6089 2.40888 83.0947 2.69987 83.4846 3.0619L84.8455 1.59631C84.2328 1.02735 83.5011 0.602185 82.6692 0.311024L82.0085 2.19874ZM83.5142 3.08836C83.9062 3.42431 84.2144 3.82915 84.4419 4.31252L86.2515 3.46092C85.906 2.72684 85.4265 2.09327 84.8158 1.56984L83.5142 3.08836ZM84.4751 4.37698C84.7102 4.79485 84.8301 5.25174 84.8301 5.7666H86.8301C86.8301 4.92079 86.6277 4.12442 86.2183 3.39646L84.4751 4.37698ZM84.8301 5.7666C84.8301 6.23689 84.7142 6.70385 84.4629 7.1786L86.2305 8.11437C86.6237 7.37167 86.8301 6.58537 86.8301 5.7666H84.8301ZM84.4523 7.19927C84.223 7.65783 83.904 8.08182 83.4846 8.47131L84.8455 9.9369C85.4286 9.39539 85.8975 8.78098 86.2411 8.0937L84.4523 7.19927ZM83.5142 8.44484C83.1088 8.79234 82.5986 9.0974 81.9675 9.34984L82.7103 11.2068C83.5114 10.8863 84.2186 10.4752 84.8158 9.96336L83.5142 8.44484ZM81.9932 9.33998C81.4276 9.54834 80.8289 9.6543 80.1904 9.6543V11.6543C81.0559 11.6543 81.8894 11.5096 82.6846 11.2167L81.9932 9.33998ZM80.1904 9.6543C79.552 9.6543 78.9532 9.54834 78.3877 9.33998L77.6963 11.2167C78.4914 11.5096 79.3249 11.6543 80.1904 11.6543V9.6543ZM78.43 9.35668C77.834 9.10573 77.3343 8.79969 76.9203 8.44484L75.6187 9.96336C76.2074 10.4679 76.8893 10.878 77.6539 11.2L78.43 9.35668ZM76.95 8.47131C76.5214 8.07338 76.1752 7.63526 75.9058 7.15622L74.1626 8.13675C74.5377 8.80354 75.015 9.40383 75.5891 9.9369L76.95 8.47131ZM75.939 7.22069C75.7124 6.73918 75.6045 6.25745 75.6045 5.7666H73.6045C73.6045 6.56481 73.783 7.33635 74.1294 8.07228L75.939 7.22069ZM75.6045 5.7666C75.6045 5.23162 75.7159 4.75941 75.9286 4.33393L74.1398 3.43951C73.7796 4.15986 73.6045 4.94091 73.6045 5.7666H75.6045ZM75.918 4.35461C76.1841 3.8519 76.5184 3.43289 76.9203 3.08836L75.6187 1.56984C75.0181 2.08469 74.5288 2.70409 74.1504 3.41883L75.918 4.35461ZM76.95 3.0619C77.3487 2.69168 77.8239 2.40094 78.3877 2.19323L77.6963 0.31654C76.8994 0.610126 76.193 1.03553 75.5891 1.59631L76.95 3.0619ZM78.3877 2.19323C78.9532 1.98487 79.552 1.87891 80.1904 1.87891V-0.121094C79.3249 -0.121094 78.4914 0.0235982 77.6963 0.31654L78.3877 2.19323ZM75.8428 28.6598L82.6641 25.8668L81.9062 24.016L75.085 26.8089L75.8428 28.6598ZM82.2852 25.9414H85.1318V23.9414H82.2852V25.9414ZM84.1318 24.9414V75H86.1318V24.9414H84.1318ZM85.1318 74H75.4639V76H85.1318V74ZM76.4639 75V27.7344H74.4639V75H76.4639ZM97.002 25.9619V24.9619H96.002V25.9619H97.002ZM106.67 25.9619H107.67V24.9619H106.67V25.9619ZM106.67 35.2539H105.67V38.4552L107.492 35.8231L106.67 35.2539ZM109.731 31.333L108.983 30.67L108.982 30.6714L109.731 31.333ZM113.169 28.0566L113.788 28.8421L113.795 28.8364L113.802 28.8306L113.169 28.0566ZM116.821 25.8008L117.215 26.72L117.227 26.7146L116.821 25.8008ZM123.643 25.4248L123.304 26.3658L123.315 26.3698L123.643 25.4248ZM126.758 34.4482L126.14 33.6619L126.133 33.6674L126.126 33.673L126.758 34.4482ZM120.044 35.3076L119.681 36.2396L119.712 36.2514L119.743 36.2612L120.044 35.3076ZM118.271 34.5557L117.801 35.438L117.824 35.4506L117.849 35.4618L118.271 34.5557ZM116.66 33.8037L116.237 34.7099L116.263 34.7218L116.289 34.7322L116.66 33.8037ZM110.645 35.5762L109.91 34.8971L109.901 34.9072L110.645 35.5762ZM106.67 41.0547L105.817 40.5321L105.67 40.7726V41.0547H106.67ZM106.67 75V76H107.67V75H106.67ZM97.002 75H96.002V76H97.002V75ZM97.002 26.9619H106.67V24.9619H97.002V26.9619ZM105.67 25.9619V35.2539H107.67V25.9619H105.67ZM107.492 35.8231C108.438 34.4574 109.434 33.1814 110.481 31.9946L108.982 30.6714C107.88 31.9195 106.836 33.2575 105.848 34.6847L107.492 35.8231ZM110.48 31.996C111.555 30.7825 112.658 29.7324 113.788 28.8421L112.55 27.2711C111.317 28.2429 110.128 29.377 108.983 30.67L110.48 31.996ZM113.802 28.8306C114.92 27.9162 116.058 27.216 117.215 26.7199L116.427 24.8816C115.078 25.4598 113.781 26.2635 112.536 27.2827L113.802 28.8306ZM117.227 26.7146C118.401 26.1931 119.552 25.9414 120.688 25.9414V23.9414C119.247 23.9414 117.82 24.2626 116.415 24.887L117.227 26.7146ZM120.688 25.9414C121.662 25.9414 122.53 26.0872 123.304 26.3657L123.981 24.4839C122.964 24.1178 121.863 23.9414 120.688 23.9414V25.9414ZM123.315 26.3698C124.155 26.6604 124.859 27.0398 125.44 27.4987L126.679 25.929C125.9 25.3137 124.992 24.8338 123.97 24.4798L123.315 26.3698ZM125.44 27.4987C126.022 27.9581 126.469 28.4836 126.795 29.0757L128.547 28.1118C128.085 27.2716 127.458 26.5438 126.679 25.929L125.44 27.4987ZM126.795 29.0757C127.111 29.6499 127.262 30.2368 127.262 30.8496H129.262C129.262 29.8869 129.019 28.9699 128.547 28.1118L126.795 29.0757ZM127.262 30.8496C127.262 32.2428 126.839 33.1125 126.14 33.6619L127.376 35.2346C128.682 34.2084 129.262 32.6791 129.262 30.8496H127.262ZM126.126 33.673C125.398 34.2662 124.292 34.6299 122.676 34.6299V36.6299C124.568 36.6299 126.184 36.2058 127.389 35.2235L126.126 33.673ZM122.676 34.6299C121.658 34.6299 120.892 34.5268 120.345 34.354L119.743 36.2612C120.557 36.5182 121.546 36.6299 122.676 36.6299V34.6299ZM120.406 34.3756C119.779 34.1316 119.209 33.8895 118.694 33.6495L117.849 35.4618C118.409 35.7231 119.02 35.9823 119.681 36.2396L120.406 34.3756ZM118.742 33.6733C118.174 33.3706 117.604 33.1043 117.032 32.8752L116.289 34.7322C116.79 34.9328 117.294 35.1678 117.801 35.438L118.742 33.6733ZM117.083 32.8975C116.368 32.5637 115.51 32.4277 114.565 32.4277V34.4277C115.339 34.4277 115.878 34.5424 116.237 34.7099L117.083 32.8975ZM114.565 32.4277C112.881 32.4277 111.328 33.365 109.91 34.8971L111.379 36.2552C112.611 34.9228 113.671 34.4277 114.565 34.4277V32.4277ZM109.901 34.9072C108.56 36.3975 107.2 38.2769 105.817 40.5321L107.523 41.5772C108.862 39.3924 110.151 37.6194 111.388 36.2451L109.901 34.9072ZM105.67 41.0547V75H107.67V41.0547H105.67ZM106.67 74H97.002V76H106.67V74ZM98.002 75V25.9619H96.002V75H98.002ZM147.007 74.248L146.61 75.1661L146.62 75.1701L147.007 74.248ZM134.224 61.626L133.306 62.0226L133.307 62.0268L134.224 61.626ZM134.062 41.4307L135.008 41.756L135.009 41.7529L134.062 41.4307ZM146.523 27.0361L146.944 27.9435L146.949 27.9412L146.523 27.0361ZM165.269 26.6602L164.872 27.578L164.879 27.5812L164.887 27.5843L165.269 26.6602ZM172.144 31.2256L171.43 31.9261L171.436 31.9327L171.443 31.9393L172.144 31.2256ZM176.655 37.832L175.736 38.226L175.738 38.2308L176.655 37.832ZM178.267 45.6201V46.6201H179.267V45.6201H178.267ZM141.689 45.6201V44.6201H140.689V45.6201H141.689ZM142.925 54.8047L141.965 55.0842L141.967 55.0915L141.969 55.0988L142.925 54.8047ZM152.002 66.8896L151.514 67.7625L151.525 67.7687L152.002 66.8896ZM165.054 67.5879L164.727 66.6427L164.722 66.6446L165.054 67.5879ZM170.371 64.9023L170.947 65.7198L170.951 65.7173L170.371 64.9023ZM174.453 61.0352L175.244 61.6477L174.453 61.0352ZM176.816 56.5771L177.228 55.6656L176.189 55.1972L175.859 56.2878L176.816 56.5771ZM179.556 57.8125L180.517 58.0872L180.755 57.2562L179.967 56.9009L179.556 57.8125ZM170.693 70.7031L170.078 69.9145L170.072 69.9196L170.693 70.7031ZM166.074 41.6992V42.6992H167.074V41.6992H166.074ZM165.054 36.543L164.125 36.9144L164.13 36.927L164.136 36.9394L165.054 36.543ZM158.34 29.6143L157.936 30.5289L157.945 30.5329L157.954 30.5367L158.34 29.6143ZM149.155 29.6143L149.593 30.5135L149.602 30.5087L149.155 29.6143ZM142.979 36.543L142.065 36.1368L142.06 36.1465L142.979 36.543ZM141.743 41.6992L140.746 41.6225L140.663 42.6992H141.743V41.6992ZM156.353 75.0742C153.147 75.0742 150.165 74.489 147.394 73.326L146.62 75.1701C149.65 76.442 152.897 77.0742 156.353 77.0742V75.0742ZM147.403 73.3301C144.613 72.1242 142.175 70.4917 140.081 68.4326L138.679 69.8584C140.954 72.0961 143.6 73.8654 146.61 75.166L147.403 73.3301ZM140.081 68.4326C137.99 66.3754 136.343 63.9754 135.14 61.2252L133.307 62.0268C134.611 65.0057 136.402 67.6188 138.679 69.8584L140.081 68.4326ZM135.142 61.2293C133.945 58.4595 133.344 55.4978 133.344 52.334H131.344C131.344 55.7587 131.996 58.9917 133.306 62.0226L135.142 61.2293ZM133.344 52.334C133.344 48.4929 133.902 44.9698 135.008 41.756L133.117 41.1053C131.931 44.5517 131.344 48.2975 131.344 52.334H133.344ZM135.009 41.7529C136.118 38.4968 137.686 35.7125 139.706 33.3848L138.195 32.0741C135.989 34.6162 134.299 37.6328 133.116 41.1084L135.009 41.7529ZM139.706 33.3848C141.725 31.0571 144.135 29.245 146.944 27.9434L146.103 26.1288C143.039 27.5487 140.4 29.5321 138.195 32.0741L139.706 33.3848ZM146.949 27.9412C149.773 26.6139 152.938 25.9414 156.46 25.9414V23.9414C152.677 23.9414 149.218 24.6654 146.098 26.1311L146.949 27.9412ZM156.46 25.9414C159.562 25.9414 162.361 26.4923 164.872 27.578L165.665 25.7423C162.877 24.5363 159.803 23.9414 156.46 23.9414V25.9414ZM164.887 27.5843C167.457 28.6467 169.633 30.0954 171.43 31.9261L172.857 30.5251C170.858 28.4886 168.451 26.8937 165.651 25.736L164.887 27.5843ZM171.443 31.9393C173.283 33.7451 174.713 35.8385 175.736 38.226L177.574 37.4381C176.449 34.8126 174.871 32.5016 172.844 30.5119L171.443 31.9393ZM175.738 38.2308C176.757 40.5743 177.267 43.0345 177.267 45.6201H179.267C179.267 42.763 178.702 40.0311 177.572 37.4333L175.738 38.2308ZM178.267 44.6201H141.689V46.6201H178.267V44.6201ZM140.689 45.6201C140.689 48.998 141.112 52.1546 141.965 55.0842L143.885 54.5252C143.091 51.7972 142.689 48.8308 142.689 45.6201H140.689ZM141.969 55.0988C142.858 57.9872 144.106 60.5119 145.725 62.6579L147.322 61.4534C145.861 59.5174 144.711 57.2082 143.881 54.5106L141.969 55.0988ZM145.725 62.6579C147.344 64.8033 149.273 66.5093 151.514 67.7624L152.49 66.0169C150.505 64.9067 148.783 63.3901 147.322 61.4534L145.725 62.6579ZM151.525 67.7687C153.793 68.9985 156.285 69.6084 158.984 69.6084V67.6084C156.599 67.6084 154.436 67.0725 152.479 66.0106L151.525 67.7687ZM158.984 69.6084C161.207 69.6084 163.342 69.2502 165.386 68.5312L164.722 66.6446C162.898 67.2862 160.987 67.6084 158.984 67.6084V69.6084ZM165.38 68.5331C167.431 67.8246 169.289 66.8881 170.947 65.7198L169.795 64.0849C168.302 65.1366 166.615 65.9905 164.727 66.6427L165.38 68.5331ZM170.951 65.7173C172.635 64.5198 174.068 63.1642 175.244 61.6477L173.663 60.4226C172.618 61.7707 171.33 62.9932 169.792 64.0874L170.951 65.7173ZM175.244 61.6477C176.419 60.131 177.269 58.5371 177.774 56.8665L175.859 56.2878C175.433 57.6966 174.707 59.0748 173.663 60.4226L175.244 61.6477ZM176.405 57.4887L179.145 58.7241L179.967 56.9009L177.228 55.6656L176.405 57.4887ZM178.594 57.5378C177.909 59.9351 176.83 62.1991 175.35 64.3324L176.994 65.4722C178.593 63.1654 179.77 60.7029 180.517 58.0872L178.594 57.5378ZM175.35 64.3324C173.867 66.4703 172.111 68.3299 170.078 69.9145L171.308 71.4918C173.501 69.782 175.397 67.7745 176.994 65.4722L175.35 64.3324ZM170.072 69.9196C168.073 71.505 165.886 72.7622 163.508 73.6928L164.236 75.5553C166.8 74.5523 169.16 73.1956 171.315 71.4866L170.072 69.9196ZM163.508 73.6928C161.148 74.6162 158.765 75.0742 156.353 75.0742V77.0742C159.025 77.0742 161.655 76.5655 164.236 75.5553L163.508 73.6928ZM167.074 41.6992C167.074 39.7126 166.711 37.8575 165.972 36.1465L164.136 36.9394C164.757 38.3794 165.074 39.9619 165.074 41.6992H167.074ZM165.982 36.1716C165.292 34.446 164.327 32.9375 163.086 31.6574L161.65 33.0497C162.701 34.1328 163.526 35.4173 164.125 36.9144L165.982 36.1716ZM163.086 31.6574C161.845 30.3772 160.389 29.3878 158.726 28.6918L157.954 30.5367C159.37 31.1298 160.6 31.9665 161.65 33.0497L163.086 31.6574ZM158.744 28.6996C157.072 27.9606 155.286 27.5938 153.398 27.5938V29.5938C155.02 29.5938 156.529 29.9072 157.936 30.5289L158.744 28.6996ZM153.398 27.5938C151.769 27.5938 150.202 27.9727 148.708 28.7198L149.602 30.5087C150.83 29.8952 152.091 29.5938 153.398 29.5938V27.5938ZM148.718 28.715C147.266 29.4215 145.979 30.4189 144.859 31.6934L146.362 33.0136C147.318 31.9249 148.395 31.0961 149.593 30.5135L148.718 28.715ZM144.859 31.6934C143.747 32.9596 142.817 34.4441 142.065 36.1368L143.892 36.9491C144.572 35.4191 145.397 34.1108 146.362 33.0136L144.859 31.6934ZM142.06 36.1465C141.333 37.8321 140.897 39.66 140.746 41.6225L142.74 41.7759C142.876 40.0144 143.264 38.4049 143.897 36.9394L142.06 36.1465ZM141.743 42.6992H166.074V40.6992H141.743V42.6992ZM217.207 69.8975L217.779 70.7179L217.784 70.7144L217.207 69.8975ZM220.107 66.7822L219.25 66.2677L219.245 66.2752L220.107 66.7822ZM219.731 57.3291L218.893 57.8748L218.899 57.8838L219.731 57.3291ZM215.757 53.1396L215.132 53.9205L215.142 53.9281L215.151 53.9355L215.757 53.1396ZM210.171 49.541L209.7 50.423L209.706 50.4263L210.171 49.541ZM203.726 46.2109L203.261 47.0965L203.27 47.101L203.278 47.1054L203.726 46.2109ZM197.28 42.666L196.764 43.5222L196.772 43.5274L196.781 43.5324L197.28 42.666ZM191.694 38.5303L191.012 39.2614L191.02 39.2688L191.694 38.5303ZM187.612 20.2686L186.7 19.8595L186.697 19.8661L186.694 19.8727L187.612 20.2686ZM191.641 14.8438L190.989 14.0855L190.981 14.0921L191.641 14.8438ZM221.289 13.7695L220.698 14.5765L220.708 14.5833L221.289 13.7695ZM228.862 24.6729L229.281 25.5811L230.087 25.2097L229.814 24.3652L228.862 24.6729ZM223.384 27.1973L222.433 27.5083L222.783 28.5753L223.802 28.1055L223.384 27.1973ZM220.913 21.8262L220.056 22.3407L220.06 22.3476L220.064 22.3545L220.913 21.8262ZM217.368 17.6904L216.724 18.4554L216.734 18.4635L217.368 17.6904ZM212.642 15.0586L212.303 15.9995L212.311 16.0025L212.32 16.0054L212.642 15.0586ZM201.309 14.9512L201.645 15.8929L201.655 15.8894L201.665 15.8857L201.309 14.9512ZM197.549 17.1533L198.215 17.8993L198.222 17.8928L198.229 17.8861L197.549 17.1533ZM195.293 20.2148L194.377 19.814L195.293 20.2148ZM196.045 28.3252L195.233 28.9084L195.241 28.9203L195.25 28.9319L196.045 28.3252ZM200.127 32.2461L199.53 33.0481L199.539 33.0552L199.549 33.0621L200.127 32.2461ZM212.48 39.2822L212.011 40.165L212.016 40.1681L212.48 39.2822ZM224.834 47.2314L224.159 47.9693L224.167 47.9767L224.175 47.984L224.834 47.2314ZM228.916 52.2266L228.039 52.7078L228.045 52.7181L228.051 52.7283L228.916 52.2266ZM199.429 75.4834L199.156 76.4455L199.16 76.4465L199.429 75.4834ZM193.091 72.583L192.514 73.4L192.525 73.4075L193.091 72.583ZM188.364 67.9102L187.542 68.4794L187.548 68.4884L187.555 68.4974L188.364 67.9102ZM185.142 61.5723L184.761 60.6474L183.874 61.0123L184.202 61.914L185.142 61.5723ZM190.889 59.209L191.842 58.9075L191.514 57.8705L190.508 58.2841L190.889 59.209ZM197.495 68.9844L196.892 69.7822L196.903 69.7899L197.495 68.9844ZM208.452 73.4219C210.12 73.4219 211.768 73.1943 213.394 72.7405L212.856 70.8141C211.403 71.2198 209.935 71.4219 208.452 71.4219V73.4219ZM213.394 72.7405C215.03 72.2839 216.495 71.6124 217.779 70.7179L216.635 69.0771C215.555 69.8297 214.299 70.4114 212.856 70.8141L213.394 72.7405ZM217.784 70.7144C219.111 69.7778 220.177 68.6358 220.969 67.2892L219.245 66.2752C218.605 67.3636 217.738 68.2984 216.63 69.0805L217.784 70.7144ZM220.965 67.2967C221.819 65.8724 222.235 64.2588 222.235 62.4854H220.235C220.235 63.9346 219.899 65.1855 219.25 66.2677L220.965 67.2967ZM222.235 62.4854C222.235 60.3688 221.683 58.4542 220.563 56.7744L218.899 57.8838C219.785 59.2118 220.235 60.7347 220.235 62.4854H222.235ZM220.569 56.7834C219.497 55.1363 218.089 53.6578 216.362 52.3438L215.151 53.9355C216.719 55.128 217.961 56.4425 218.893 57.8748L220.569 56.7834ZM216.382 52.3588C214.713 51.0243 212.797 49.7909 210.636 48.6558L209.706 50.4263C211.771 51.5111 213.578 52.6769 215.132 53.9205L216.382 52.3588ZM210.642 48.6591C208.557 47.5446 206.401 46.4304 204.173 45.3165L203.278 47.1054C205.491 48.2116 207.631 49.3174 209.7 50.4229L210.642 48.6591ZM204.19 45.3254C202.017 44.1856 199.881 43.0104 197.78 41.7996L196.781 43.5324C198.905 44.7566 201.065 45.9446 203.261 47.0965L204.19 45.3254ZM197.797 41.8098C195.772 40.5876 193.963 39.2477 192.369 37.7918L191.02 39.2688C192.72 40.8206 194.635 42.2379 196.764 43.5222L197.797 41.8098ZM192.377 37.7992C190.842 36.3664 189.603 34.7695 188.654 33.0073L186.893 33.9555C187.949 35.9174 189.324 37.6863 191.012 39.2613L192.377 37.7992ZM188.654 33.0073C187.741 31.3118 187.27 29.3308 187.27 27.0361H185.27C185.27 29.6113 185.801 31.9271 186.893 33.9555L188.654 33.0073ZM187.27 27.0361C187.27 24.7268 187.693 22.6069 188.531 20.6644L186.694 19.8727C185.741 22.0839 185.27 24.4757 185.27 27.0361H187.27ZM188.525 20.6776C189.396 18.7352 190.651 17.0429 192.3 15.5954L190.981 14.0921C189.121 15.724 187.691 17.6482 186.7 19.8595L188.525 20.6776ZM192.293 15.6019C193.971 14.1587 196.036 13.0182 198.51 12.1938L197.877 10.2964C195.194 11.1908 192.891 12.4493 190.989 14.0856L192.293 15.6019ZM198.51 12.1938C200.966 11.3751 203.81 10.9561 207.056 10.9561V8.95605C203.641 8.95605 200.577 9.39641 197.877 10.2964L198.51 12.1938ZM207.056 10.9561C212.941 10.9561 217.453 12.2007 220.698 14.5765L221.88 12.9626C218.179 10.2537 213.201 8.95605 207.056 8.95605V10.9561ZM220.708 14.5833C224.015 16.9459 226.426 20.3881 227.911 24.9805L229.814 24.3652C228.219 19.4328 225.581 15.6062 221.87 12.9558L220.708 14.5833ZM228.444 23.7646L222.965 26.289L223.802 28.1055L229.281 25.5811L228.444 23.7646ZM224.334 26.8862C223.667 24.8475 222.811 22.9832 221.762 21.2979L220.064 22.3545C221.021 23.8918 221.812 25.6082 222.433 27.5083L224.334 26.8862ZM221.771 21.3117C220.747 19.606 219.491 18.1389 218.002 16.9174L216.734 18.4635C218.038 19.5337 219.145 20.8237 220.056 22.3407L221.771 21.3117ZM218.012 16.9255C216.551 15.6946 214.864 14.758 212.964 14.1118L212.32 16.0054C214 16.5766 215.464 17.3946 216.724 18.4553L218.012 16.9255ZM212.98 14.1177C211.063 13.4276 208.923 13.0918 206.572 13.0918V15.0918C208.734 15.0918 210.639 15.4006 212.303 15.9995L212.98 14.1177ZM206.572 13.0918C204.474 13.0918 202.594 13.3913 200.953 14.0167L201.665 15.8857C203.031 15.3652 204.66 15.0918 206.572 15.0918V13.0918ZM200.972 14.0094C199.362 14.5846 197.986 15.3832 196.868 16.4205L198.229 17.8861C199.117 17.0615 200.248 16.392 201.645 15.8929L200.972 14.0094ZM196.883 16.4074C195.781 17.391 194.94 18.5269 194.377 19.814L196.209 20.6157C196.649 19.6111 197.311 18.706 198.215 17.8993L196.883 16.4074ZM194.377 19.814C193.824 21.0787 193.541 22.3785 193.541 23.7061H195.541C195.541 22.6703 195.76 21.6426 196.209 20.6157L194.377 19.814ZM193.541 23.7061C193.541 25.603 194.111 27.3459 195.233 28.9084L196.857 27.742C195.974 26.5116 195.541 25.175 195.541 23.7061H193.541ZM195.25 28.9319C196.356 30.381 197.788 31.7513 199.53 33.0481L200.724 31.4441C199.1 30.2344 197.811 28.9907 196.84 27.7185L195.25 28.9319ZM199.549 33.0621C201.307 34.3073 203.277 35.5107 205.457 36.6734L206.398 34.9087C204.281 33.7797 202.385 32.6198 200.705 31.4301L199.549 33.0621ZM205.457 36.6734C207.606 37.8193 209.79 38.9832 212.011 40.165L212.95 38.3995C210.731 37.218 208.547 36.0544 206.398 34.9087L205.457 36.6734ZM212.016 40.1681C214.256 41.3409 216.441 42.5668 218.572 43.8458L219.601 42.1308C217.436 40.8316 215.217 39.5868 212.944 38.3964L212.016 40.1681ZM218.572 43.8458C220.669 45.1037 222.53 46.4789 224.159 47.9693L225.509 46.4936C223.772 44.9046 221.802 43.4509 219.601 42.1308L218.572 43.8458ZM224.175 47.984C225.815 49.4183 227.098 50.9936 228.039 52.7078L229.793 51.7453C228.729 49.8072 227.291 48.0524 225.492 46.4789L224.175 47.984ZM228.051 52.7283C228.995 54.3552 229.474 56.1851 229.474 58.2422H231.474C231.474 55.8592 230.914 53.6787 229.781 51.7248L228.051 52.7283ZM229.474 58.2422C229.474 60.6162 229.017 62.8431 228.107 64.9328L229.94 65.7313C230.964 63.3808 231.474 60.8811 231.474 58.2422H229.474ZM228.107 64.9328C227.202 67.011 225.861 68.8244 224.071 70.3776L225.382 71.888C227.388 70.147 228.912 68.0932 229.94 65.7313L228.107 64.9328ZM224.071 70.3776C222.289 71.924 220.029 73.1728 217.263 74.1062L217.903 76.0012C220.866 75.001 223.368 73.6359 225.382 71.888L224.071 70.3776ZM217.263 74.1062C214.523 75.031 211.323 75.5039 207.646 75.5039V77.5039C211.49 77.5039 214.914 77.0101 217.903 76.0012L217.263 74.1062ZM207.646 75.5039C204.676 75.5039 202.029 75.1718 199.698 74.5203L199.16 76.4465C201.698 77.1557 204.53 77.5039 207.646 77.5039V75.5039ZM199.702 74.5213C197.394 73.8669 195.383 72.9431 193.657 71.7585L192.525 73.4075C194.451 74.7294 196.665 75.7392 199.156 76.4455L199.702 74.5213ZM193.668 71.766C191.932 70.5409 190.435 69.0611 189.174 67.3229L187.555 68.4974C188.944 70.4115 190.597 72.047 192.514 73.4L193.668 71.766ZM189.186 67.3409C187.951 65.5567 186.915 63.522 186.081 61.2305L184.202 61.914C185.087 64.3491 186.199 66.5396 187.542 68.4794L189.186 67.3409ZM185.522 62.4971L191.269 60.1338L190.508 58.2841L184.761 60.6474L185.522 62.4971ZM189.935 59.5105C191.314 63.8693 193.625 67.3128 196.892 69.7821L198.098 68.1866C195.206 66.001 193.113 62.9276 191.842 58.9075L189.935 59.5105ZM196.903 69.7899C200.204 72.2186 204.068 73.4219 208.452 73.4219V71.4219C204.457 71.4219 201.017 70.3335 198.088 68.1789L196.903 69.7899ZM245.298 25.9619L246.215 25.5643L245.954 24.9619H245.298V25.9619ZM260.82 61.7871L259.903 62.1847L260.824 64.3098L261.739 62.1824L260.82 61.7871ZM276.235 25.9619L277.153 25.5655L276.234 23.4356L275.317 25.5667L276.235 25.9619ZM291.704 61.7871L290.786 62.1835L291.759 64.4359L292.638 62.1454L291.704 61.7871ZM305.454 25.9619V24.9619H304.767L304.521 25.6036L305.454 25.9619ZM310.127 25.9619L311.054 26.3357L311.608 24.9619H310.127V25.9619ZM290.146 75.5371V76.5371H290.822L291.074 75.9109L290.146 75.5371ZM286.816 75.5371L285.897 75.9299L286.156 76.5371H286.816V75.5371ZM273.12 43.4717L274.04 43.0789L273.124 40.9343L272.202 43.0763L273.12 43.4717ZM259.316 75.5371V76.5371H259.975L260.235 75.9325L259.316 75.5371ZM256.255 75.5371L255.337 75.9347L255.598 76.5371H256.255V75.5371ZM234.771 25.9619V24.9619H233.247L233.853 26.3595L234.771 25.9619ZM244.38 26.3595L259.903 62.1847L261.738 61.3895L246.215 25.5643L244.38 26.3595ZM261.739 62.1824L277.154 26.3572L275.317 25.5667L259.902 61.3919L261.739 62.1824ZM275.317 26.3583L290.786 62.1835L292.622 61.3907L277.153 25.5655L275.317 26.3583ZM292.638 62.1454L306.388 26.3202L304.521 25.6036L290.771 61.4288L292.638 62.1454ZM305.454 26.9619H310.127V24.9619H305.454V26.9619ZM309.199 25.5881L289.219 75.1633L291.074 75.9109L311.054 26.3357L309.199 25.5881ZM290.146 74.5371H286.816V76.5371H290.146V74.5371ZM287.736 75.1443L274.04 43.0789L272.2 43.8645L285.897 75.9299L287.736 75.1443ZM272.202 43.0763L258.398 75.1417L260.235 75.9325L274.039 43.8671L272.202 43.0763ZM259.316 74.5371H256.255V76.5371H259.316V74.5371ZM257.172 75.1395L235.688 25.5643L233.853 26.3595L255.337 75.9347L257.172 75.1395ZM234.771 26.9619H245.298V24.9619H234.771V26.9619ZM323.501 1.25488L323.155 2.19323L323.163 2.19605L323.171 2.19874L323.501 1.25488ZM325.327 2.3291L324.647 3.0619L324.661 3.07542L324.676 3.08836L325.327 2.3291ZM326.509 3.88672L325.604 4.31252L325.619 4.34535L325.637 4.37698L326.509 3.88672ZM326.509 7.64648L325.625 7.1786L325.62 7.18887L325.614 7.19927L326.509 7.64648ZM325.327 9.2041L325.978 9.96336L325.993 9.95042L326.008 9.9369L325.327 9.2041ZM323.501 10.2783L323.847 11.2167L323.86 11.2119L323.872 11.2068L323.501 10.2783ZM319.204 10.2783L318.816 11.2L318.837 11.2088L318.858 11.2167L319.204 10.2783ZM317.432 9.2041L316.751 9.9369L316.766 9.95042L316.781 9.96336L317.432 9.2041ZM316.196 7.64648L315.291 8.07228L315.307 8.10512L315.325 8.13675L316.196 7.64648ZM316.196 3.88672L315.313 3.41883L315.307 3.42911L315.302 3.43951L316.196 3.88672ZM317.432 2.3291L318.082 3.08836L318.098 3.07542L318.112 3.0619L317.432 2.3291ZM316.626 27.7344L316.247 26.8089L315.626 27.0632V27.7344H316.626ZM323.447 24.9414V23.9414H323.25L323.068 24.016L323.447 24.9414ZM326.294 24.9414H327.294V23.9414H326.294V24.9414ZM326.294 75V76H327.294V75H326.294ZM316.626 75H315.626V76H316.626V75ZM321.353 1.87891C321.991 1.87891 322.59 1.98487 323.155 2.19323L323.847 0.31654C323.052 0.0235982 322.218 -0.121094 321.353 -0.121094V1.87891ZM323.171 2.19874C323.771 2.40888 324.257 2.69987 324.647 3.0619L326.008 1.59631C325.395 1.02735 324.663 0.602185 323.831 0.311024L323.171 2.19874ZM324.676 3.08836C325.068 3.42431 325.377 3.82915 325.604 4.31252L327.414 3.46092C327.068 2.72684 326.589 2.09327 325.978 1.56984L324.676 3.08836ZM325.637 4.37698C325.872 4.79485 325.992 5.25174 325.992 5.7666H327.992C327.992 4.92079 327.79 4.12442 327.38 3.39646L325.637 4.37698ZM325.992 5.7666C325.992 6.23689 325.876 6.70385 325.625 7.1786L327.393 8.11437C327.786 7.37167 327.992 6.58537 327.992 5.7666H325.992ZM325.614 7.19927C325.385 7.65783 325.066 8.08182 324.647 8.47131L326.008 9.9369C326.591 9.39539 327.06 8.78098 327.403 8.0937L325.614 7.19927ZM324.676 8.44484C324.271 8.79234 323.761 9.0974 323.13 9.34984L323.872 11.2068C324.674 10.8863 325.381 10.4752 325.978 9.96336L324.676 8.44484ZM323.155 9.33998C322.59 9.54834 321.991 9.6543 321.353 9.6543V11.6543C322.218 11.6543 323.052 11.5096 323.847 11.2167L323.155 9.33998ZM321.353 9.6543C320.714 9.6543 320.115 9.54834 319.55 9.33998L318.858 11.2167C319.654 11.5096 320.487 11.6543 321.353 11.6543V9.6543ZM319.592 9.35668C318.996 9.10573 318.496 8.79969 318.082 8.44484L316.781 9.96336C317.369 10.4679 318.051 10.878 318.816 11.2L319.592 9.35668ZM318.112 8.47131C317.684 8.07338 317.337 7.63526 317.068 7.15622L315.325 8.13675C315.7 8.80354 316.177 9.40383 316.751 9.9369L318.112 8.47131ZM317.101 7.22069C316.875 6.73918 316.767 6.25745 316.767 5.7666H314.767C314.767 6.56481 314.945 7.33635 315.291 8.07228L317.101 7.22069ZM316.767 5.7666C316.767 5.23162 316.878 4.75941 317.091 4.33393L315.302 3.43951C314.942 4.15986 314.767 4.94091 314.767 5.7666H316.767ZM317.08 4.35461C317.346 3.8519 317.68 3.43289 318.082 3.08836L316.781 1.56984C316.18 2.08469 315.691 2.70409 315.313 3.41883L317.08 4.35461ZM318.112 3.0619C318.511 2.69168 318.986 2.40094 319.55 2.19323L318.858 0.31654C318.062 0.610126 317.355 1.03553 316.751 1.59631L318.112 3.0619ZM319.55 2.19323C320.115 1.98487 320.714 1.87891 321.353 1.87891V-0.121094C320.487 -0.121094 319.654 0.0235982 318.858 0.31654L319.55 2.19323ZM317.005 28.6598L323.826 25.8668L323.068 24.016L316.247 26.8089L317.005 28.6598ZM323.447 25.9414H326.294V23.9414H323.447V25.9414ZM325.294 24.9414V75H327.294V24.9414H325.294ZM326.294 74H316.626V76H326.294V74ZM317.626 75V27.7344H315.626V75H317.626ZM367.007 25.9619H368.007V24.9619H367.007V25.9619ZM367.007 30.0977V31.0977H368.007V30.0977H367.007ZM353.901 30.0977V29.0977H352.901V30.0977H353.901ZM353.901 75V76H354.901V75H353.901ZM344.126 75H343.126V76H344.126V75ZM344.126 30.0977H345.126V29.0977H344.126V30.0977ZM333.813 30.0977H332.813V31.0977H333.813V30.0977ZM333.813 25.9619V24.9619H332.813V25.9619H333.813ZM344.126 25.9619V26.9619H345.126V25.9619H344.126ZM345.522 12.6953L344.597 12.3167L344.594 12.3239L345.522 12.6953ZM368.135 1.52344L367.887 2.49237L367.892 2.49358L368.135 1.52344ZM374.473 12.6416L375.09 13.4279L375.099 13.4212L375.107 13.4143L374.473 12.6416ZM366.792 11.4062L365.888 11.8343L365.897 11.8534L365.907 11.872L366.792 11.4062ZM365.986 9.15039L365.009 9.36282L365.014 9.38291L365.019 9.40281L365.986 9.15039ZM365.127 6.89453L364.242 7.36028L364.251 7.37812L364.262 7.39557L365.127 6.89453ZM357.93 5.33691L358.476 6.17452L358.488 6.16636L358.501 6.15782L357.93 5.33691ZM355.781 7.53906L354.944 6.99179L354.939 7.00001L355.781 7.53906ZM354.385 10.6543L353.428 10.3643L353.424 10.3777L353.42 10.3912L354.385 10.6543ZM353.901 25.9619H352.901V26.9619H353.901V25.9619ZM366.007 25.9619V30.0977H368.007V25.9619H366.007ZM367.007 29.0977H353.901V31.0977H367.007V29.0977ZM352.901 30.0977V75H354.901V30.0977H352.901ZM353.901 74H344.126V76H353.901V74ZM345.126 75V30.0977H343.126V75H345.126ZM344.126 29.0977H333.813V31.0977H344.126V29.0977ZM334.813 30.0977V25.9619H332.813V30.0977H334.813ZM333.813 26.9619H344.126V24.9619H333.813V26.9619ZM345.126 25.9619V20.2148H343.126V25.9619H345.126ZM345.126 20.2148C345.126 17.6474 345.57 15.2678 346.451 13.0667L344.594 12.3239C343.612 14.7777 343.126 17.4112 343.126 20.2148H345.126ZM346.448 13.0739C347.371 10.8168 348.614 8.86314 350.172 7.20299L348.714 5.83412C346.979 7.68308 345.607 9.84729 344.597 12.3167L346.448 13.0739ZM350.172 7.20299C351.729 5.54539 353.554 4.2434 355.656 3.29418L354.833 1.47144C352.494 2.52743 350.452 3.98261 348.714 5.83412L350.172 7.20299ZM355.656 3.29418C357.741 2.35255 359.981 1.87891 362.388 1.87891V-0.121094C359.71 -0.121094 357.188 0.407866 354.833 1.47144L355.656 3.29418ZM362.388 1.87891C364.472 1.87891 366.302 2.0875 367.887 2.49236L368.382 0.55452C366.602 0.100003 364.601 -0.121094 362.388 -0.121094V1.87891ZM367.892 2.49358C369.532 2.9036 370.854 3.45657 371.883 4.13195L372.98 2.45985C371.718 1.63132 370.175 1.00265 368.377 0.553295L367.892 2.49358ZM371.883 4.13195C372.925 4.81597 373.689 5.59096 374.209 6.44671L375.918 5.40876C375.22 4.2593 374.23 3.27974 372.98 2.45985L371.883 4.13195ZM374.209 6.44671C374.722 7.29165 374.977 8.20405 374.977 9.2041H376.977C376.977 7.84088 376.623 6.56903 375.918 5.40876L374.209 6.44671ZM374.977 9.2041C374.977 10.4173 374.577 11.2617 373.838 11.8689L375.107 13.4143C376.373 12.3744 376.977 10.9271 376.977 9.2041H374.977ZM373.855 11.8553C373.036 12.4989 372.092 12.8232 370.981 12.8232V14.8232C372.521 14.8232 373.904 14.3598 375.09 13.4279L373.855 11.8553ZM370.981 12.8232C369.863 12.8232 369.208 12.6046 368.85 12.3306L367.635 13.9194C368.494 14.5764 369.665 14.8232 370.981 14.8232V12.8232ZM368.85 12.3306C368.357 11.9536 367.968 11.4929 367.677 10.9405L365.907 11.872C366.332 12.6803 366.91 13.3654 367.635 13.9194L368.85 12.3306ZM367.696 10.9782C367.403 10.361 367.155 9.6688 366.954 8.89797L365.019 9.40281C365.247 10.2791 365.536 11.0908 365.888 11.8343L367.696 10.9782ZM366.964 8.93796C366.764 8.02029 366.442 7.16991 365.992 6.39349L364.262 7.39557C364.6 7.97983 364.851 8.63336 365.009 9.36282L366.964 8.93796ZM366.012 6.42878C365.572 5.59397 364.939 4.90113 364.134 4.35047L363.005 6.00109C363.561 6.38142 363.965 6.83441 364.242 7.36028L366.012 6.42878ZM364.134 4.35047C363.218 3.72356 362.001 3.47754 360.615 3.47754V5.47754C361.808 5.47754 362.56 5.69701 363.005 6.00109L364.134 4.35047ZM360.615 3.47754C359.436 3.47754 358.343 3.83117 357.359 4.51601L358.501 6.15782C359.163 5.69683 359.861 5.47754 360.615 5.47754V3.47754ZM357.383 4.4993C356.43 5.12136 355.619 5.96016 354.944 6.99181L356.618 8.08631C357.161 7.25599 357.783 6.62668 358.476 6.17452L357.383 4.4993ZM354.939 7.00001C354.309 7.98384 353.808 9.1086 353.428 10.3643L355.342 10.9443C355.677 9.83672 356.107 8.88465 356.624 8.07812L354.939 7.00001ZM353.42 10.3912C353.074 11.6606 352.901 12.9666 352.901 14.3066H354.901C354.901 13.1402 355.051 12.0113 355.35 10.9174L353.42 10.3912ZM352.901 14.3066V25.9619H354.901V14.3066H352.901ZM353.901 26.9619H367.007V24.9619H353.901V26.9619ZM401.113 68.7695L401.982 69.2657L402.438 68.4675L401.681 67.946L401.113 68.7695ZM395.903 74.1406L396.418 74.9981L396.422 74.9956L395.903 74.1406ZM383.657 75.2148L384.083 74.31L384.072 74.3048L384.061 74.2999L383.657 75.2148ZM378.877 69.3066L377.908 69.555L377.911 69.5666L377.915 69.5781L378.877 69.3066ZM378.34 30.0977H379.34V29.0977H378.34V30.0977ZM369.854 30.0977H368.854V31.0977H369.854V30.0977ZM369.854 27.6807V26.6807H368.854V27.6807H369.854ZM376.567 26.2305L377.05 27.1063L377.056 27.103L376.567 26.2305ZM380.918 22.2021L380.086 21.6474L380.083 21.6516L380.918 22.2021ZM383.604 16.2939L384.564 16.5728L384.565 16.5687L383.604 16.2939ZM385.269 9.2041V8.2041H384.439L384.286 9.01895L385.269 9.2041ZM388.062 9.2041H389.062V8.2041H388.062V9.2041ZM388.062 25.9619H387.062V26.9619H388.062V25.9619ZM399.072 25.9619H400.072V24.9619H399.072V25.9619ZM399.072 30.0977V31.0977H400.072V30.0977H399.072ZM388.062 30.0977V29.0977H387.062V30.0977H388.062ZM389.565 68.3936L388.846 69.0881L388.858 69.1008L388.871 69.113L389.565 68.3936ZM396.387 69.0918L396.901 69.9493L396.387 69.0918ZM398.696 67.1045L399.264 66.281L398.505 65.7587L397.922 66.4713L398.696 67.1045ZM400.245 68.2734C399.039 70.3845 397.421 72.0503 395.385 73.2856L396.422 74.9956C398.754 73.5812 400.61 71.6663 401.982 69.2657L400.245 68.2734ZM395.389 73.2831C393.431 74.4577 390.97 75.0742 387.954 75.0742V77.0742C391.24 77.0742 394.079 76.4016 396.418 74.9981L395.389 73.2831ZM387.954 75.0742C386.422 75.0742 385.141 74.8078 384.083 74.31L383.231 76.1197C384.609 76.7677 386.192 77.0742 387.954 77.0742V75.0742ZM384.061 74.2999C382.987 73.826 382.118 73.1555 381.436 72.2875L379.863 73.5231C380.757 74.6603 381.893 75.5295 383.254 76.1298L384.061 74.2999ZM381.436 72.2875C380.739 71.4009 380.203 70.3231 379.839 69.0352L377.915 69.5781C378.339 71.0832 378.984 72.4044 379.863 73.5231L381.436 72.2875ZM379.846 69.0583C379.512 67.7567 379.34 66.2843 379.34 64.6338H377.34C377.34 66.4208 377.526 68.0636 377.908 69.555L379.846 69.0583ZM379.34 64.6338V30.0977H377.34V64.6338H379.34ZM378.34 29.0977H369.854V31.0977H378.34V29.0977ZM370.854 30.0977V27.6807H368.854V30.0977H370.854ZM369.854 28.6807C372.686 28.6807 375.104 28.1785 377.05 27.1063L376.085 25.3546C374.522 26.216 372.464 26.6807 369.854 26.6807V28.6807ZM377.056 27.103C378.983 26.0237 380.553 24.5716 381.753 22.7527L380.083 21.6516C379.063 23.1986 377.732 24.432 376.079 25.358L377.056 27.103ZM381.75 22.7568C382.959 20.9438 383.894 18.8793 384.564 16.5728L382.643 16.0151C382.024 18.1487 381.169 20.023 380.086 21.6474L381.75 22.7568ZM384.565 16.5687C385.219 14.2813 385.78 11.888 386.251 9.38925L384.286 9.01895C383.826 11.4616 383.278 13.7949 382.642 16.0192L384.565 16.5687ZM385.269 10.2041H388.062V8.2041H385.269V10.2041ZM387.062 9.2041V25.9619H389.062V9.2041H387.062ZM388.062 26.9619H399.072V24.9619H388.062V26.9619ZM398.072 25.9619V30.0977H400.072V25.9619H398.072ZM399.072 29.0977H388.062V31.0977H399.072V29.0977ZM387.062 30.0977V64.6338H389.062V30.0977H387.062ZM387.062 64.6338C387.062 66.3561 387.66 67.8598 388.846 69.0881L390.285 67.699C389.466 66.8505 389.062 65.8477 389.062 64.6338H387.062ZM388.871 69.113C390.104 70.3038 391.628 70.8975 393.379 70.8975V68.8975C392.122 68.8975 391.104 68.4886 390.26 67.6742L388.871 69.113ZM393.379 70.8975C394.658 70.8975 395.841 70.5856 396.901 69.9493L395.872 68.2343C395.142 68.6722 394.32 68.8975 393.379 68.8975V70.8975ZM396.901 69.9493C397.893 69.3545 398.751 68.6169 399.47 67.7377L397.922 66.4713C397.353 67.1676 396.671 67.7549 395.872 68.2343L396.901 69.9493ZM398.129 67.928L400.546 69.593L401.681 67.946L399.264 66.281L398.129 67.928Z" fill="black" mask="url(#path-1-outside-1_206_32)"/>
<path d="M0 45.6201V44.6201H-1V45.6201H0ZM401.328 45.6201H402.328V44.6201H401.328V45.6201ZM401.328 48.3057V49.3057H402.328V48.3057H401.328ZM0 48.3057H-1V49.3057H0V48.3057ZM0 46.6201H401.328V44.6201H0V46.6201ZM400.328 45.6201V48.3057H402.328V45.6201H400.328ZM401.328 47.3057H0V49.3057H401.328V47.3057ZM1 48.3057V45.6201H-1V48.3057H1Z" fill="black" mask="url(#path-1-outside-1_206_32)"/>
<mask id="path-3-inside-2_206_32" fill="white">
<path d="M416 75.3559L465.764 47.2196C471.641 43.8967 471.641 38.4593 465.764 35.1365L416 7"/>
</mask>
<path d="M409.572 63.9864C403.292 67.5367 401.08 75.505 404.63 81.7842C408.181 88.0635 416.149 90.2757 422.428 86.7255L409.572 63.9864ZM465.764 47.2196L459.336 35.85L459.336 35.85L465.764 47.2196ZM465.764 35.1365L459.336 46.506L459.336 46.506L465.764 35.1365ZM422.428 -4.36953C416.149 -7.91979 408.181 -5.70754 404.63 0.571676C401.08 6.85089 403.292 14.8193 409.572 18.3695L422.428 -4.36953ZM422.428 86.7255L472.192 58.5891L459.336 35.85L409.572 63.9864L422.428 86.7255ZM472.192 58.5891C477.491 55.5931 483.233 49.7813 483.233 41.178C483.233 32.5748 477.491 26.7629 472.192 23.7669L459.336 46.506C459.914 46.8329 457.111 45.4011 457.111 41.178C457.111 36.9549 459.914 35.5232 459.336 35.85L472.192 58.5891ZM472.192 23.7669L422.428 -4.36953L409.572 18.3695L459.336 46.506L472.192 23.7669Z" fill="#7DE8BF" mask="url(#path-3-inside-2_206_32)"/>
</svg>
